<svg width="18" height="11" viewBox="0 0 18 11" fill="none" xmlns="http://www.w3.org/2000/svg">
<path d="M11.068 2.62048H9.4248V10.4318H11.068V2.62048Z" fill="black"/>
<path d="M11.068 0H9.4248V1.62128H11.068V0Z" fill="#005FFF"/>
<path d="M17.2352 2.64309C17.0546 2.61172 16.8773 2.5957 16.7082 2.5957C15.7185 2.5957 15.1496 3.0636 14.8012 3.51347C14.6213 3.74575 14.4698 4.04944 14.3548 4.42189V2.6204H12.7109V10.4318H14.3548V6.67259C14.3548 5.80421 14.6504 4.3478 16.6311 4.3478C16.966 4.3478 17.2129 4.39519 17.2352 4.3992V2.64309Z" fill="black"/>
<path d="M6.15184 2.62047V3.75517C5.93808 3.47817 5.67899 3.23922 5.38134 3.04365C4.84625 2.69256 4.23404 2.51501 3.56163 2.51501C2.9068 2.51501 2.29798 2.6979 1.75139 3.05833C1.20953 3.41609 0.777267 3.90802 0.46609 4.52008C0.156942 5.12881 0 5.80562 0 6.53116C0 7.2567 0.156942 7.93484 0.46609 8.54557C0.777267 9.16098 1.20953 9.65357 1.75139 10.0113C2.29798 10.3718 2.90883 10.5546 3.56839 10.5546C4.24081 10.5546 4.85166 10.3778 5.38472 10.0293C5.68102 9.83512 5.93943 9.5975 6.15252 9.32117V10.4318H7.78147V2.62047H6.15184ZM6.0869 7.11186C6.03684 7.36416 5.95431 7.60378 5.83931 7.82805C5.6384 8.21851 5.36443 8.53156 5.02484 8.75783C4.69066 8.98076 4.31793 9.09356 3.91745 9.09356C3.51631 9.09356 3.14289 8.98343 2.80736 8.7665C2.46845 8.54757 2.19515 8.23987 1.99492 7.85208C1.79333 7.46294 1.69118 7.01707 1.69051 6.52582C1.69118 6.03523 1.79333 5.5887 1.99492 5.19956C2.19515 4.81243 2.46845 4.50473 2.80736 4.28514C3.14222 4.06821 3.51563 3.95808 3.91745 3.95808C4.31793 3.95808 4.68999 4.07088 5.02484 4.29381C5.36443 4.52008 5.6384 4.83313 5.83931 5.22359C5.95431 5.44719 6.03752 5.68748 6.0869 5.93978C6.15523 6.29821 6.15523 6.75476 6.0869 7.11186Z" fill="black"/>
</svg>
